<!DOCTYPE svg PUBLIC "-//W3C//DTD SVG 1.1//EN" "http://www.w3.org/Graphics/SVG/1.1/DTD/svg11.dtd">
<!-- Uploaded to: SVG Repo, www.svgrepo.com, Transformed by: SVG Repo Mixer Tools -->
<svg width="800px" height="800px" viewBox="-3.2 -3.2 38.40 38.40" fill="none" xmlns="http://www.w3.org/2000/svg">
<g id="SVGRepo_bgCarrier" stroke-width="0">
<path transform="translate(-3.2, -3.2), scale(1.2)" d="M16,28.734832730536397C17.97421250034033,28.395513181428726,19.47189705629303,26.896646216010254,21.341390496763132,26.177169302589178C23.489479998047617,25.35047434304562,26.657799053374184,26.1479030781791,27.845238434335336,24.176177747864063C29.06236978320217,22.155149348975414,26.345884387325224,19.632030099635777,26.688811512939004,17.29785669218999C27.045129423587024,14.872537347321494,31.1691173222141,12.804423095873645,29.81626097094405,10.760183366568345C28.273482751795243,8.428961336875311,24.30965049593329,10.434000986799285,21.62671459064354,9.648752164251196C20.267807532225547,9.251023629077794,19.419011720840263,7.936181055302148,18.134237601591753,7.341057670096491C16.645830705759526,6.651609044738726,15.121390921076351,6.181673425091185,13.507583692813594,5.887869537139531C11.146008322718542,5.457929694713804,8.680659358974312,4.34327328431475,6.443228524854462,5.212634980776237C4.16959473300651,6.09606346503177,2.5862949872603194,8.310112055103806,1.568485576682674,10.526848509887394C0.5242956414975588,12.801040388039985,-0.7866507688462419,15.80540697609846,0.6335454471029145,17.86582538690749C2.307625812308829,20.294578517571832,6.843742891073793,18.75775523782351,8.777339624329215,20.985442494155464C10.38628072349419,22.83909559624988,7.925874634916697,26.399770497669618,9.599394183228293,28.19533547975893C11.080737104209092,29.784708892255082,13.858730134386217,29.102865414552255,16,28.734832730536397" fill="#7ed0ec" strokewidth="0"/>
</g>
<g id="SVGRepo_tracerCarrier" stroke-linecap="round" stroke-linejoin="round"/>
<g id="SVGRepo_iconCarrier"> <path d="M6 28L4 3H28L26 28L16 31L6 28Z" fill="#ff1111"/> <path d="M26 5H16V29.5L24 27L26 5Z" fill="#ff1111"/> <path d="M19.5 17.5H9.5L9 14L17 11.5H9L8.5 8.5H24L23.5 12L17 14.5H23L22 24L16 26L10 24L9.5 19H12.5L13 21.5L16 22.5L19 21.5L19.5 17.5Z" fill="white"/> </g>
</svg>