<!DOCTYPE svg PUBLIC "-//W3C//DTD SVG 1.1//EN" "http://www.w3.org/Graphics/SVG/1.1/DTD/svg11.dtd">
<!-- Uploaded to: SVG Repo, www.svgrepo.com, Transformed by: SVG Repo Mixer Tools -->
<svg width="800px" height="800px" viewBox="-3.2 -3.2 38.40 38.40" fill="none" xmlns="http://www.w3.org/2000/svg">
<g id="SVGRepo_bgCarrier" stroke-width="0">
<path transform="translate(-3.2, -3.2), scale(1.2)" d="M16,25.870743034407496C19.64789045689363,26.452573844224368,23.74373864686229,28.934712467056617,26.632932277836197,26.632932277836197C29.553802071619536,24.30591613238093,28.87399324486758,19.70297121754824,28.389752957969904,16C27.97651282513691,12.839964870292313,26.332407725695393,10.17078531966456,24.173589504577215,7.826410495422785C21.889346018050137,5.345829745331367,19.336887804894225,3.031346213289063,16,2.545312324538827C12.145500242488598,1.9838857450828538,7.876965775631344,2.37095517867764,5.039426939751078,5.039426939751074C2.1465228410960506,7.759965174203021,1.0111576241185811,12.087775039323944,1.6928601004183292,15.999999999999998C2.296452112198499,19.463956515705455,5.398165642743759,21.710899591753833,8.292351544827007,23.70764845517299C10.575710237469066,25.282977072118253,13.26057004509032,25.433809752573435,16,25.870743034407496" fill="#7ed0ec" strokewidth="0"/>
</g>
<g id="SVGRepo_tracerCarrier" stroke-linecap="round" stroke-linejoin="round"/>
<g id="SVGRepo_iconCarrier"> <path d="M6 28L4 3H28L26 28L16 31L6 28Z" fill="#E44D26"/> <path d="M26 5H16V29.5L24 27L26 5Z" fill="#F16529"/> <path d="M9.5 17.5L8.5 8H24L23.5 11H11.5L12 14.5H23L22 24L16 26L10 24L9.5 19H12.5L13 21.5L16 22.5L19 21.5L19.5 17.5H9.5Z" fill="white"/> </g>
</svg>