<!DOCTYPE svg PUBLIC "-//W3C//DTD SVG 1.1//EN" "http://www.w3.org/Graphics/SVG/1.1/DTD/svg11.dtd">
<!-- Uploaded to: SVG Repo, www.svgrepo.com, Transformed by: SVG Repo Mixer Tools -->
<svg width="800px" height="800px" viewBox="-3.2 -3.2 38.40 38.40" xmlns="http://www.w3.org/2000/svg" fill="#000000">
<g id="SVGRepo_bgCarrier" stroke-width="0">
<path transform="translate(-3.2, -3.2), scale(1.2)" d="M16,26.828854070769417C17.46181676844284,26.17161091231335,18.343738729767736,24.354757254020402,19.93625230949019,24.17371214296365C22.637841099772682,23.866581674002994,25.838809456573195,27.268606508465318,27.884709261208158,25.477739370417762C29.714383739378597,23.8761438822827,27.043458952869507,20.779602259986287,26.52864767791357,18.403095126636778C26.193662462109753,16.85671338705167,25.633225889785127,15.42165362086312,25.368388428685705,13.8617264756003C25.086388314843013,12.20070906996492,25.89969890957848,10.257682527474111,24.913807441025867,8.891475772159914C23.93579571330485,7.536188428867868,21.864494716740257,7.673989673545451,20.367236093846987,6.931340807243743C18.851262453958636,6.179409185149748,17.689400414614255,4.5676619405146,16,4.47017614543438C14.3119484601957,4.372768186332046,12.842205401696141,5.558499159146067,11.383104202811689,6.412917091393574C10.0021960932733,7.221546850917909,8.838252885929638,8.265245043940594,7.663489996870135,9.351855116351963C6.333707803555697,10.581852027920696,4.811018644068994,11.645981387778985,3.983457911739034,13.257302683619848C3.069835750861192,15.036191877685246,1.7915097226070098,17.25097127288296,2.6886522170324447,19.038228266800132C3.667360010509058,20.987976896211094,7.097523855958176,20.31057655225458,8.401795574632365,22.059365832519205C9.77343349994572,23.898480846552264,7.944960577524743,27.471660673559253,9.888136038942207,28.69141628807585C11.714891425206684,29.838093560914174,14.032853653910532,27.713296981508748,16,26.828854070769417" fill="#7ed0ec" strokewidth="0"/>
</g>
<g id="SVGRepo_tracerCarrier" stroke-linecap="round" stroke-linejoin="round"/>
<g id="SVGRepo_iconCarrier">
<title>file_type_js</title>
<path d="M18.774,19.7a3.727,3.727,0,0,0,3.376,2.078c1.418,0,2.324-.709,2.324-1.688,0-1.173-.931-1.589-2.491-2.272l-.856-.367c-2.469-1.052-4.11-2.37-4.11-5.156,0-2.567,1.956-4.52,5.012-4.52A5.058,5.058,0,0,1,26.9,10.52l-2.665,1.711a2.327,2.327,0,0,0-2.2-1.467,1.489,1.489,0,0,0-1.638,1.467c0,1.027.636,1.442,2.1,2.078l.856.366c2.908,1.247,4.549,2.518,4.549,5.376,0,3.081-2.42,4.769-5.671,4.769a6.575,6.575,0,0,1-6.236-3.5ZM6.686,20c.538.954,1.027,1.76,2.2,1.76,1.124,0,1.834-.44,1.834-2.15V7.975h3.422V19.658c0,3.543-2.078,5.156-5.11,5.156A5.312,5.312,0,0,1,3.9,21.688Z" style="fill:#ff0000"/>
</g>
</svg>